<svg xmlns="http://www.w3.org/2000/svg" xmlns:xlink="http://www.w3.org/1999/xlink" width="16" height="16" viewBox="0 0 16 16">
  <defs>
    <linearGradient id="linear-gradient" x1="0.058" y1="0.788" x2="0.302" y2="0.5" gradientUnits="objectBoundingBox">
      <stop offset="0" stop-color="#47a3ff"/>
      <stop offset="0.26" stop-color="#47a3ff"/>
      <stop offset="1" stop-color="#1b5c9e"/>
    </linearGradient>
    <clipPath id="clip-path">
      <ellipse id="Ellipse_20" data-name="Ellipse 20" cx="3.686" cy="3.686" rx="3.686" ry="3.686" fill="#fff" stroke="#707070" stroke-width="1" opacity="0.41"/>
    </clipPath>
    <radialGradient id="radial-gradient" cx="0.34" cy="0.199" r="0.766" gradientTransform="translate(0.001 -0.002) rotate(0.331)" gradientUnits="objectBoundingBox">
      <stop offset="0" stop-color="#6cc54d"/>
      <stop offset="1" stop-color="#3c7b26"/>
    </radialGradient>
    <linearGradient id="linear-gradient-2" x1="0.081" y1="0.854" x2="0.258" y2="0.586" gradientUnits="objectBoundingBox">
      <stop offset="0" stop-color="#212121"/>
      <stop offset="0.777" stop-color="#040404"/>
      <stop offset="1"/>
    </linearGradient>
  </defs>
  <g id="Gruppe_27" data-name="Gruppe 27" transform="translate(6.021 2)">
    <g id="Gruppe_7" data-name="Gruppe 7" transform="translate(-4.841 -2)">
      <path id="Differenzmenge_1" data-name="Differenzmenge 1" d="M13.865,13.865H8.55L4.13,9.445l-.036,4.419h-1.1A2.99,2.99,0,0,1,0,10.872V0L13.865,13.865Z" transform="translate(13.865 13.865) rotate(180)" fill="url(#linear-gradient)"/>
      <path id="Differenzmenge_2" data-name="Differenzmenge 2" d="M13.865,13.865H8.55L0,5.315V0L13.865,13.865Z" transform="translate(13.865 13.865) rotate(180)" fill="#47a3ff"/>
    </g>
    <g id="Gruppe_5" data-name="Gruppe 5" transform="translate(1.979 12.872) rotate(-135)">
      <g id="Gruppe_maskieren_3" data-name="Gruppe maskieren 3" transform="translate(6.385 10.071) rotate(-150)" clip-path="url(#clip-path)">
        <ellipse id="Ellipse_15" data-name="Ellipse 15" cx="3.416" cy="3.416" rx="3.416" ry="3.416" transform="translate(-1.081 2.837) rotate(-35.025)" fill="url(#radial-gradient)"/>
        <path id="Ellipse_15_-_Kontur" data-name="Ellipse 15 - Kontur" d="M3.789.374A3.416,3.416,0,1,0,7.205,3.79,3.416,3.416,0,0,0,3.789.374m0-.374A3.787,3.787,0,1,1,2.314.3,3.789,3.789,0,0,1,3.789,0Z" transform="translate(-1.602 2.745) rotate(-35.025)" fill="#fff"/>
        <path id="Ellipse_16" data-name="Ellipse 16" d="M5.481.374A7.186,7.186,0,0,0,3.453.658a6.154,6.154,0,0,0-.877.331,5.2,5.2,0,0,0-.757.434A4.2,4.2,0,0,0,1.2,1.94a3.3,3.3,0,0,0-.454.581A2.394,2.394,0,0,0,.75,5.1a3.3,3.3,0,0,0,.454.58,4.2,4.2,0,0,0,.614.517,5.2,5.2,0,0,0,.757.434,6.154,6.154,0,0,0,.877.331,7.377,7.377,0,0,0,4.056,0,6.155,6.155,0,0,0,.877-.331A5.2,5.2,0,0,0,9.143,6.2a4.2,4.2,0,0,0,.614-.517,3.3,3.3,0,0,0,.454-.581,2.394,2.394,0,0,0,0-2.577,3.3,3.3,0,0,0-.454-.581,4.2,4.2,0,0,0-.614-.517A5.2,5.2,0,0,0,8.386.989a6.154,6.154,0,0,0-.878-.33A7.186,7.186,0,0,0,5.481.374m0-.374c3.027,0,5.48,1.706,5.48,3.809S8.507,7.619,5.48,7.619,0,5.913,0,3.809,2.454,0,5.481,0Z" transform="translate(-4.562 1.269) rotate(-35.025)" fill="#fff"/>
        <path id="Ellipse_17" data-name="Ellipse 17" d="M4.1.374A5.246,5.246,0,0,0,2.613.585a4.114,4.114,0,0,0-1.2.564,2.69,2.69,0,0,0-.774.8,1.73,1.73,0,0,0,0,1.852,2.69,2.69,0,0,0,.774.8,4.114,4.114,0,0,0,1.2.564,5.386,5.386,0,0,0,2.983,0,4.114,4.114,0,0,0,1.2-.564,2.69,2.69,0,0,0,.774-.8,1.73,1.73,0,0,0,0-1.852,2.69,2.69,0,0,0-.774-.8A4.114,4.114,0,0,0,5.6.585,5.246,5.246,0,0,0,4.1.374M4.1,0c2.267,0,4.1,1.287,4.1,2.875S6.371,5.751,4.1,5.751,0,4.463,0,2.875,1.838,0,4.1,0Z" transform="translate(-3.402 0.697) rotate(-35.025)" fill="#fff"/>
        <path id="Ellipse_18" data-name="Ellipse 18" d="M2.925.374A3.283,3.283,0,0,0,1.9.533a2.7,2.7,0,0,0-.817.425,1.662,1.662,0,0,0-.711,1.3,1.662,1.662,0,0,0,.711,1.3,2.7,2.7,0,0,0,.817.425,3.362,3.362,0,0,0,2.044,0,2.7,2.7,0,0,0,.817-.425,1.661,1.661,0,0,0,.711-1.3,1.661,1.661,0,0,0-.711-1.3A2.7,2.7,0,0,0,3.947.533,3.283,3.283,0,0,0,2.925.374m0-.374C4.54,0,5.849,1.012,5.849,2.261S4.54,4.522,2.925,4.522,0,3.51,0,2.261,1.309,0,2.925,0Z" transform="translate(-2.694 -0.519) rotate(-35.025)" fill="#fff"/>
        <path id="Ellipse_19" data-name="Ellipse 19" d="M5.431.374A4.507,4.507,0,0,0,3.478.819a4.9,4.9,0,0,0-.857.524,5.3,5.3,0,0,0-.751.7,5.693,5.693,0,0,0-.622.85,6.025,6.025,0,0,0-.471.979,6.486,6.486,0,0,0,0,4.5,6.025,6.025,0,0,0,.471.979,5.692,5.692,0,0,0,.622.85,5.3,5.3,0,0,0,.751.7,4.9,4.9,0,0,0,.857.524,4.514,4.514,0,0,0,3.906,0,4.9,4.9,0,0,0,.857-.524,5.3,5.3,0,0,0,.751-.7,5.693,5.693,0,0,0,.622-.85,6.025,6.025,0,0,0,.471-.979,6.486,6.486,0,0,0,0-4.5,6.025,6.025,0,0,0-.471-.979,5.692,5.692,0,0,0-.622-.85,5.3,5.3,0,0,0-.751-.7A4.9,4.9,0,0,0,7.385.819,4.507,4.507,0,0,0,5.431.374m0-.374c3,0,5.431,2.74,5.431,6.119s-2.431,6.119-5.431,6.119S0,9.5,0,6.119,2.432,0,5.431,0Z" transform="translate(-6.129 -1.054) rotate(-35.025)" fill="#fff"/>
        <path id="Pfad_20" data-name="Pfad 20" d="M2.39.374H2.367a1.231,1.231,0,0,0-.432.2,3.065,3.065,0,0,0-.69.617A3.609,3.609,0,0,0,.637,2.237,4.3,4.3,0,0,0,.374,3.755,4.172,4.172,0,0,0,.629,5.23a3.429,3.429,0,0,0,.6,1.021,2.743,2.743,0,0,0,.688.59,1.062,1.062,0,0,0,.451.169h0a1.873,1.873,0,0,0,.555-.1,2.077,2.077,0,0,0,.725-.426,2.493,2.493,0,0,0,.638-.955,4.877,4.877,0,0,0,.287-1.77,4.713,4.713,0,0,0-.286-1.7,2.971,2.971,0,0,0-.649-1.024A2.446,2.446,0,0,0,2.9.511,1.4,1.4,0,0,0,2.39.374M2.39,0c.627,0,2.556.784,2.556,3.755,0,3.178-1.937,3.62-2.572,3.63S0,6.23,0,3.755A3.706,3.706,0,0,1,2.33,0c.019,0,.039,0,.061,0Z" transform="translate(-0.331 1.913) rotate(-35.025)" fill="#fff"/>
        <path id="Pfad_21" data-name="Pfad 21" d="M.434,6.953.065,6.889A39.5,39.5,0,0,0,0,.034L.373,0c.1,1.133.169,2.559.184,3.914C.564,4.577.558,5.2.539,5.7A10.054,10.054,0,0,1,.434,6.953Z" transform="translate(1.542 0.924) rotate(-35.025)" fill="#fff"/>
      </g>
    </g>
    <g id="Gruppe_6" data-name="Gruppe 6" transform="translate(-4.841 0.135)">
      <path id="Differenzmenge_1-2" data-name="Differenzmenge 1" d="M13.865,13.865H8.55L4.13,9.445l-.036,4.419h-1.1A2.99,2.99,0,0,1,0,10.872V0L13.865,13.865Z" transform="translate(0 0)" fill="url(#linear-gradient-2)"/>
      <path id="Differenzmenge_2-2" data-name="Differenzmenge 2" d="M13.865,13.865H8.55L0,5.315V0L13.865,13.865Z" transform="translate(0 0)" fill="#2d2d2d"/>
    </g>
    <rect id="Rechteck_28" data-name="Rechteck 28" width="16" height="16" transform="translate(-6.021 -2)" fill="none"/>
  </g>
</svg>
