<svg xmlns="http://www.w3.org/2000/svg" xmlns:xlink="http://www.w3.org/1999/xlink" width="250" height="250" viewBox="0 0 250 250">
  <defs>
    <linearGradient id="linear-gradient" x1="0.058" y1="0.788" x2="0.302" y2="0.5" gradientUnits="objectBoundingBox">
      <stop offset="0" stop-color="#47a3ff"/>
      <stop offset="0.26" stop-color="#47a3ff"/>
      <stop offset="1" stop-color="#1b5c9e"/>
    </linearGradient>
    <clipPath id="clip-path">
      <ellipse id="Ellipse_20" data-name="Ellipse 20" cx="56.487" cy="56.586" rx="56.487" ry="56.586" fill="#fff" stroke="#707070" stroke-width="1" opacity="0.41"/>
    </clipPath>
    <radialGradient id="radial-gradient" cx="0.34" cy="0.199" r="0.766" gradientTransform="translate(0.001 -0.002) rotate(0.331)" gradientUnits="objectBoundingBox">
      <stop offset="0" stop-color="#6cc54d"/>
      <stop offset="1" stop-color="#3c7b26"/>
    </radialGradient>
    <linearGradient id="linear-gradient-2" x1="0.081" y1="0.854" x2="0.258" y2="0.586" gradientUnits="objectBoundingBox">
      <stop offset="0" stop-color="#212121"/>
      <stop offset="0.777" stop-color="#040404"/>
      <stop offset="1"/>
    </linearGradient>
  </defs>
  <g id="Gruppe_27" data-name="Gruppe 27" transform="translate(6.021 2)">
    <g id="Gruppe_7" data-name="Gruppe 7" transform="translate(12.882 -2)">
      <path id="Differenzmenge_1" data-name="Differenzmenge 1" d="M216.225,215.778H133.331L64.406,146.995l-.56,68.781H46.667A46.579,46.579,0,0,1,0,169.205V0L216.222,215.776Z" transform="translate(216.225 215.778) rotate(180)" fill="url(#linear-gradient)"/>
      <path id="Differenzmenge_2" data-name="Differenzmenge 2" d="M216.225,215.778H133.333L0,82.722V0L216.222,215.776Z" transform="translate(216.225 215.778) rotate(180)" fill="#47a3ff"/>
    </g>
    <g id="Gruppe_5" data-name="Gruppe 5" transform="translate(119.18 229.355) rotate(-135)">
      <g id="Gruppe_maskieren_3" data-name="Gruppe maskieren 3" transform="translate(97.833 154.497) rotate(-150)" clip-path="url(#clip-path)">
        <path id="Ellipse_15" data-name="Ellipse 15" d="M52.471,0A52.408,52.408,0,1,1,0,52.458,52.293,52.293,0,0,1,52.471,0Z" transform="translate(-16.667 43.57) rotate(-35.025)" fill="url(#radial-gradient)"/>
        <path id="Ellipse_15_-_Kontur" data-name="Ellipse 15 - Kontur" d="M58.2,5.738A52.408,52.408,0,1,0,110.569,58.1,52.538,52.538,0,0,0,58.2,5.738M58.2,0A58.242,58.242,0,1,1,35.558,4.6,58.006,58.006,0,0,1,58.2,0Z" transform="translate(-24.651 42.156) rotate(-35.025)" fill="#fff"/>
        <path id="Ellipse_16" data-name="Ellipse 16" d="M84.151,5.738a110.384,110.384,0,0,0-31.12,4.392,94.636,94.636,0,0,0-13.47,5.091,80.064,80.064,0,0,0-11.617,6.668,64.635,64.635,0,0,0-9.434,7.941,50.758,50.758,0,0,0-6.979,8.919,36.719,36.719,0,0,0-.038,39.529,50.472,50.472,0,0,0,6.962,8.9A64.267,64.267,0,0,0,27.876,95.1a79.663,79.663,0,0,0,11.6,6.645,94.275,94.275,0,0,0,13.46,5.064,113.228,113.228,0,0,0,62.233-.061,94.65,94.65,0,0,0,13.47-5.09,80.061,80.061,0,0,0,11.617-6.668,64.64,64.64,0,0,0,9.437-7.945,50.761,50.761,0,0,0,6.976-8.917,36.719,36.719,0,0,0,.038-39.529,50.476,50.476,0,0,0-6.958-8.9,64.268,64.268,0,0,0-9.422-7.927,79.662,79.662,0,0,0-11.6-6.645,94.272,94.272,0,0,0-13.463-5.054A110.208,110.208,0,0,0,84.151,5.738M84.157,0C130.6-.046,168.231,26.085,168.2,58.358s-37.711,58.477-84.157,58.523S-.032,90.8,0,58.522,37.71.045,84.157,0Z" transform="translate(-70.039 19.488) rotate(-35.025)" fill="#fff"/>
        <path id="Ellipse_17" data-name="Ellipse 17" d="M63.018,5.738A80.583,80.583,0,0,0,40.131,8.99a63.276,63.276,0,0,0-18.365,8.669,41.392,41.392,0,0,0-11.889,12.3,26.53,26.53,0,0,0-.028,28.41A41.155,41.155,0,0,0,21.714,70.646a62.992,62.992,0,0,0,18.348,8.633,82.675,82.675,0,0,0,45.769-.045A63.275,63.275,0,0,0,104.2,70.566a41.392,41.392,0,0,0,11.889-12.3,26.53,26.53,0,0,0,.028-28.41A41.155,41.155,0,0,0,104.247,17.58,62.992,62.992,0,0,0,85.9,8.945,80.455,80.455,0,0,0,63.018,5.738M63.023,0c34.784-.034,62.961,19.689,62.938,44.051S97.721,88.192,62.937,88.226-.024,68.537,0,44.174,28.241.033,63.023,0Z" transform="translate(-52.235 10.705) rotate(-35.025)" fill="#fff"/>
        <path id="Ellipse_18" data-name="Ellipse 18" d="M44.906,5.738A50.432,50.432,0,0,0,29.22,8.195a41.566,41.566,0,0,0-12.545,6.531c-7.045,5.448-10.928,12.55-10.936,20S9.6,49.27,16.635,54.7a41.37,41.37,0,0,0,12.532,6.507,51.6,51.6,0,0,0,31.37-.031,41.567,41.567,0,0,0,12.545-6.531c7.045-5.447,10.927-12.549,10.935-20s-3.861-14.543-10.9-19.976A41.371,41.371,0,0,0,60.589,8.165,50.344,50.344,0,0,0,44.906,5.738M44.912,0C69.7-.024,89.776,15.487,89.757,34.643S69.634,69.349,44.845,69.373-.019,53.887,0,34.73,20.123.024,44.912,0Z" transform="translate(-41.348 -7.967) rotate(-35.025)" fill="#fff"/>
        <path id="Ellipse_19" data-name="Ellipse 19" d="M83.429,5.738a69.265,69.265,0,0,0-29.979,6.849,75.358,75.358,0,0,0-13.158,8.055A81.506,81.506,0,0,0,28.76,31.359,87.577,87.577,0,0,0,19.2,44.4a92.632,92.632,0,0,0-7.247,15.02,99.482,99.482,0,0,0-.067,69.052A92.211,92.211,0,0,0,19.1,143.482a87.087,87.087,0,0,0,9.535,13.027,81.033,81.033,0,0,0,11.508,10.7,74.965,74.965,0,0,0,13.142,8.029,69.277,69.277,0,0,0,59.945-.058,75.36,75.36,0,0,0,13.158-8.055A81.506,81.506,0,0,0,137.921,156.4a87.58,87.58,0,0,0,9.561-13.046,92.63,92.63,0,0,0,7.247-15.02,99.482,99.482,0,0,0,.067-69.052,92.2,92.2,0,0,0-7.218-15.006,87.088,87.088,0,0,0-9.531-13.026,81.035,81.035,0,0,0-11.508-10.7A74.968,74.968,0,0,0,113.4,12.528a69.094,69.094,0,0,0-29.968-6.79M83.434,0c46.034-.045,83.3,41.951,83.252,93.8s-37.4,93.918-83.435,93.963S-.051,145.812,0,93.962,37.406.044,83.434,0Z" transform="translate(-94.069 -16.159) rotate(-35.025)" fill="#fff"/>
        <path id="Pfad_20" data-name="Pfad 20" d="M36.733,5.738c-.178,0-.3.008-.364.015A18.925,18.925,0,0,0,29.735,8.76a47.171,47.171,0,0,0-10.59,9.479A55.5,55.5,0,0,0,9.793,34.348,65.969,65.969,0,0,0,5.74,57.631a63.936,63.936,0,0,0,3.9,22.626A52.469,52.469,0,0,0,18.789,95.92a41.967,41.967,0,0,0,10.547,9.047c3.265,1.913,5.77,2.59,6.923,2.589H36.3a28.774,28.774,0,0,0,8.522-1.615,31.955,31.955,0,0,0,11.127-6.553,38.341,38.341,0,0,0,9.8-14.666c2.928-7.448,4.416-16.585,4.427-27.156A72.22,72.22,0,0,0,65.8,31.425a45.459,45.459,0,0,0-9.946-15.7,37.438,37.438,0,0,0-11.28-7.9,21.389,21.389,0,0,0-7.849-2.087M36.735,0C46.357-.01,75.951,12,75.907,57.563c-.047,48.753-29.778,55.558-39.526,55.73S-.037,95.611,0,57.637C.037,18.7,27.355.9,35.8.044,36.09.015,36.4,0,36.738,0Z" transform="translate(-5.152 29.389) rotate(-35.025)" fill="#fff"/>
        <path id="Pfad_21" data-name="Pfad 21" d="M6.55,106.676.9,105.688C3.742,89.611,3.3,37.519,0,.52L5.717,0C7.265,17.378,8.275,39.26,8.484,60.038c.1,10.174,0,19.662-.3,27.439a154.285,154.285,0,0,1-1.632,19.2Z" transform="translate(23.625 14.181) rotate(-35.025)" fill="#fff"/>
      </g>
    </g>
    <g id="Gruppe_6" data-name="Gruppe 6" transform="translate(12.883 32.222)">
      <path id="Differenzmenge_1-2" data-name="Differenzmenge 1" d="M216.225,215.778H133.331L64.406,146.995l-.56,68.781H46.667A46.579,46.579,0,0,1,0,169.205V0L216.222,215.776Z" transform="translate(0 0)" fill="url(#linear-gradient-2)"/>
      <path id="Differenzmenge_2-2" data-name="Differenzmenge 2" d="M216.225,215.778H133.333L0,82.724V0L216.222,215.776Z" transform="translate(0 0)" fill="#2d2d2d"/>
    </g>
    <rect id="Rechteck_28" data-name="Rechteck 28" width="250" height="249.558" transform="translate(-6.021 -2)" fill="none"/>
  </g>
</svg>
